<svg xmlns="http://www.w3.org/2000/svg" width="20" height="20" viewBox="0 0 20 20" fill="none">
  <path d="M18.3333 9.52381V14.6667C18.3333 15.7712 17.4379 16.6667 16.3333 16.6667H6.16666C5.06209 16.6667 4.16666 15.7712 4.16666 14.6667V13.75M18.3333 9.52381V8.66667C18.3333 7.5621 17.4379 6.66667 16.3333 6.66667H15.8333M18.3333 9.52381H15.8333" stroke="#180801" stroke-width="1.5" stroke-linecap="round" stroke-linejoin="round"/>
  <path d="M15.8333 6.66667V11.75C15.8333 12.8546 14.9379 13.75 13.8333 13.75H3.66666C2.56209 13.75 1.66666 12.8546 1.66666 11.75V5.75C1.66666 4.64543 2.56209 3.75 3.66666 3.75H13.8333C14.9379 3.75 15.8333 4.64543 15.8333 5.75V6.66667ZM15.8333 6.66667H4.58332" stroke="#180801" stroke-width="1.5" stroke-linecap="round" stroke-linejoin="round"/>
</svg>