<svg xmlns="http://www.w3.org/2000/svg" width="20" height="14" viewBox="0 0 20 14" fill="none">
  <g clip-path="url(#clip0_298_2981)">
    <path d="M16.8 13.6C15.26 13.6 14 12.34 14 10.8C14 9.26 15.26 8 16.8 8C18.34 8 19.6 9.26 19.6 10.8C19.6 12.34 18.34 13.6 16.8 13.6ZM16.8 9.6C16.14 9.6 15.6 10.14 15.6 10.8C15.6 11.46 16.14 12 16.8 12C17.46 12 18 11.46 18 10.8C18 10.14 17.46 9.6 16.8 9.6ZM4.8 13.6C3.26 13.6 2 12.34 2 10.8V10.6H0V7.8C0 5.7 1.7 4 3.8 4H7.6V9H11.4L15 4.52V1.6H12V0H14.8C15.28 0 15.73 0.19 16.07 0.53C16.41 0.87 16.6 1.32 16.6 1.8V5.08L12.2 10.6H7.6V10.8C7.6 12.34 6.34 13.6 4.8 13.6ZM3.6 10.8C3.6 11.46 4.14 12 4.8 12C5.46 12 6 11.46 6 10.8V10.6H3.6V10.8ZM3.8 5.6C2.59 5.6 1.6 6.59 1.6 7.8V9H6V5.6H3.8ZM3 2.6V1H7.6V2.6H3Z" fill="#180801"/>
  </g>
  <defs>
    <clipPath id="clip0_298_2981">
      <rect width="19.6" height="13.6" fill="white"/>
    </clipPath>
  </defs>
</svg>