<svg xmlns="http://www.w3.org/2000/svg" width="20" height="19" viewBox="0 0 20 19" fill="none">
  <g clip-path="url(#clip0_13_2341)">
    <path d="M1.27 13V13.7C1.27 14.95 1.76 16.14 2.65 17.02C3.54 17.91 4.72 18.4 5.97 18.4H13.97C14.59 18.4 15.19 18.28 15.77 18.04C16.34 17.8 16.85 17.46 17.29 17.02C17.73 16.58 18.07 16.07 18.31 15.5C18.55 14.93 18.67 14.32 18.67 13.7V13H1.27ZM17.08 14.8C16.85 15.45 16.43 16 15.87 16.39C15.31 16.78 14.65 17 13.96 17H5.97C5.28 17 4.62 16.79 4.06 16.39C3.5 15.99 3.08 15.44 2.85 14.8L2.71 14.4H17.22L17.08 14.8Z" fill="#F2C81B"/>
    <path d="M15.19 11.06L13.74 12.03C13.27 12.34 12.66 12.34 12.19 12.03L10.74 11.06C10.27 10.75 9.66001 10.75 9.19001 11.06L7.74001 12.03C7.27001 12.34 6.66001 12.34 6.19001 12.03L4.74001 11.06C4.27001 10.75 3.66001 10.75 3.19001 11.06L0.770005 12.67L-0.00999451 11.5L3.18001 9.37C3.65001 9.06 4.26001 9.06 4.73001 9.37L6.18001 10.33C6.65001 10.64 7.26001 10.64 7.73001 10.33L9.18001 9.36C9.65001 9.05 10.26 9.05 10.73 9.36L12.18 10.33C12.65 10.64 13.26 10.64 13.73 10.33L15.18 9.36C15.65 9.05 16.26 9.05 16.73 9.36L19.92 11.49L19.14 12.66L16.72 11.05C16.25 10.74 15.64 10.74 15.17 11.05L15.19 11.06Z" fill="#F2C81B"/>
    <path d="M16.07 2C14.51 0.71 12.34 0 9.97001 0C7.60001 0 5.43 0.71 3.87 2C2.17 3.41 1.27 5.38 1.27 7.7V8.4H18.67V7.7C18.67 5.38 17.77 3.41 16.07 2ZM2.7 7L2.75 6.65C2.97 5.22 3.66 3.99 4.76 3.08C6.07 1.99 7.92 1.4 9.97001 1.4C12.02 1.4 13.87 2 15.18 3.08C16.28 3.99 16.97 5.22 17.19 6.65L17.24 7H2.7Z" fill="#F2C81B"/>
  </g>
  <defs>
    <clipPath id="clip0_13_2341">
      <rect width="19.94" height="18.4" fill="white"/>
    </clipPath>
  </defs>
</svg>