<svg xmlns="http://www.w3.org/2000/svg" width="24" height="24" viewBox="0 0 24 24" fill="none">
  <path d="M12 22C9.45977 22 7.2069 21.1494 5.32184 19.4598C3.52874 17.8621 2.44828 15.8506 2.10345 13.4943H3.77011C4.09195 15.4368 5.01149 17.069 6.49425 18.3563C8.05747 19.7126 9.90805 20.3908 11.9885 20.3908C14.3103 20.3908 16.3103 19.5747 17.931 17.954C19.5517 16.3333 20.3678 14.3333 20.3678 12.0115C20.3678 9.68966 19.5517 7.68965 17.931 6.06897C16.3103 4.44828 14.3103 3.62069 11.9885 3.62069C10.6207 3.62069 9.31034 3.94253 8.11494 4.57471C6.91954 5.2069 5.90805 6.09195 5.09195 7.2069L4.68966 7.75862H8.18391V9.36782H2V3.14943H3.6092V6.49425L4.21839 5.72414C5.16092 4.54023 6.32184 3.62069 7.67816 2.97701C9.03448 2.33333 10.4828 2 12 2C13.3793 2 14.6897 2.26437 15.8966 2.7931C17.1034 3.32184 18.1724 4.03448 19.069 4.93103C19.9655 5.82759 20.6782 6.89655 21.2069 8.10345C21.7356 9.31034 22 10.6207 22 12C22 13.3793 21.7356 14.6897 21.2069 15.8966C20.6782 17.1034 19.9655 18.1724 19.069 19.069C18.1724 19.9655 17.1034 20.6782 15.8966 21.2069C14.6897 21.7356 13.3793 22 12 22ZM11.1954 12.3218V6.5977H12.8046V11.6782L16.3448 15.2184L15.2184 16.3448L11.1954 12.3218Z" fill="#180801"/>
</svg>