<svg xmlns="http://www.w3.org/2000/svg" width="24" height="24" viewBox="0 0 24 24" fill="none">
  <path d="M18.3629 5.63712C16.6642 3.93848 14.4025 3 12 3C7.03545 3 3 7.03545 3 11.9906C3 13.5673 3.41293 15.1251 4.20125 16.4859L4.27633 16.6173L3.13139 20.8874L7.57039 19.8363L7.69239 19.902C9.00626 20.6152 10.4891 21 12 21C16.9552 21 21 16.9645 21 12.0094C21 9.60688 20.0709 7.34515 18.3723 5.64651L18.3629 5.63712ZM11.9906 19.8738C10.6767 19.8738 9.37226 19.5454 8.22732 18.9166L7.72054 18.6444L4.69864 19.3577L5.47758 16.4765L5.16788 15.9416C4.48279 14.7497 4.11679 13.3889 4.11679 12.0094C4.11679 7.67362 7.65485 4.14494 11.9906 4.14494C14.0928 4.14494 16.073 4.96142 17.5652 6.4536C19.048 7.94578 19.8644 9.91658 19.8644 12.0188C19.8644 16.3545 16.3264 19.8926 11.9906 19.8926V19.8738Z" fill="#180801"/>
  <path d="M14.5245 16.3076C14.2148 16.3076 13.6517 16.2419 12.2628 15.6976C10.8738 15.1533 9.50365 13.9426 8.39625 12.3003L8.33994 12.2252C8.05839 11.8498 7.42023 10.8926 7.42023 9.91658C7.42023 8.94056 7.90824 8.39625 8.14286 8.14286C8.38686 7.88008 8.6121 7.86131 8.67779 7.86131C8.82795 7.86131 8.98749 7.86131 9.11887 7.86131C9.25965 7.86131 9.35349 7.8707 9.48488 8.15224C9.60688 8.4244 9.80396 8.92179 9.97289 9.31595C10.0949 9.60688 10.1887 9.85089 10.2169 9.89781C10.2732 10.001 10.2732 10.0667 10.2357 10.1418C10.1418 10.3201 10.1137 10.3952 10.0292 10.4984L9.9072 10.6486C9.83212 10.7424 9.75704 10.8269 9.69135 10.8926C9.57873 11.0052 9.34411 11.2398 9.55996 11.5965C9.72888 11.8968 10.2075 12.6475 10.902 13.2669C11.6715 13.952 12.3472 14.2523 12.6757 14.3931L12.8259 14.4588C12.9572 14.5245 13.0605 14.5527 13.1637 14.5527C13.3139 14.5527 13.4453 14.487 13.5579 14.3556C13.6705 14.2336 14.1397 13.6799 14.318 13.4171C14.3837 13.3233 14.4119 13.3233 14.44 13.3233C14.487 13.3233 14.562 13.3514 14.6277 13.3702C14.8248 13.4453 15.951 13.999 16.2044 14.121L16.3358 14.1867C16.4296 14.2336 16.561 14.2899 16.5798 14.3274C16.5985 14.3931 16.5985 14.7967 16.4296 15.2847C16.2607 15.7539 15.3597 16.2419 15.0031 16.2701L14.8717 16.2888C14.7779 16.2982 14.6747 16.317 14.5433 16.317L14.5245 16.3076Z" fill="#180801"/>
</svg>